<?xml version="1.0" encoding="UTF-8" standalone="no"?>
<!-- Created with Inkscape (http://www.inkscape.org/) -->
<!-- Author: [Leart Turely](https://www.pixiv.net/users/75563725) -->

<svg
   version="1.1"
   id="svg2"
   width="64"
   height="64"
   viewBox="0 0 64 64"
   sodipodi:docname="cxsign.svg"
   inkscape:version="1.3.2 (091e20ef0f, 2023-11-25, custom)"
   xml:space="preserve"
   xmlns:inkscape="http://www.inkscape.org/namespaces/inkscape"
   xmlns:sodipodi="http://sodipodi.sourceforge.net/DTD/sodipodi-0.dtd"
   xmlns:xlink="http://www.w3.org/1999/xlink"
   xmlns="http://www.w3.org/2000/svg"
   xmlns:svg="http://www.w3.org/2000/svg"><defs
     id="defs6"><linearGradient
       id="linearGradient113"
       inkscape:collect="always"><stop
         style="stop-color:#6d3b25;stop-opacity:1;"
         offset="0"
         id="stop112" /><stop
         style="stop-color:#6d3c25;stop-opacity:1;"
         offset="1"
         id="stop113" /></linearGradient><linearGradient
       id="linearGradient110"
       inkscape:collect="always"><stop
         style="stop-color:#86492d;stop-opacity:1;"
         offset="0"
         id="stop110" /><stop
         style="stop-color:#a95d39;stop-opacity:1;"
         offset="1"
         id="stop111" /></linearGradient><linearGradient
       id="linearGradient106"
       inkscape:collect="always"><stop
         style="stop-color:#3a3a3c;stop-opacity:1;"
         offset="0"
         id="stop106" /><stop
         style="stop-color:#654735;stop-opacity:1;"
         offset="0.52704114"
         id="stop108" /><stop
         style="stop-color:#694833;stop-opacity:1;"
         offset="0.83323765"
         id="stop109" /><stop
         style="stop-color:#98522a;stop-opacity:1;"
         offset="1"
         id="stop107" /></linearGradient><linearGradient
       id="linearGradient20390"
       inkscape:swatch="solid"><stop
         style="stop-color:#059aff;stop-opacity:1;"
         offset="0"
         id="stop20388" /></linearGradient><mask
       id="holes"><rect
         x="-60"
         y="-60"
         width="120"
         height="120"
         fill="#ffffff"
         id="rect35" /><circle
         id="hole"
         cy="-40"
         r="3"
         cx="0" /><use
         xlink:href="#hole"
         transform="rotate(72)"
         id="use36" /><use
         xlink:href="#hole"
         transform="rotate(144)"
         id="use37" /><use
         xlink:href="#hole"
         transform="rotate(-144)"
         id="use38" /><use
         xlink:href="#hole"
         transform="rotate(-72)"
         id="use39" /></mask><mask
       id="holes-7"><rect
         x="-60"
         y="-60"
         width="120"
         height="120"
         fill="#ffffff"
         id="rect35-5" /><circle
         id="hole-3"
         cy="-40"
         r="3"
         cx="0" /><use
         xlink:href="#hole-3"
         transform="rotate(72)"
         id="use36-5" /><use
         xlink:href="#hole-3"
         transform="rotate(144)"
         id="use37-6" /><use
         xlink:href="#hole-3"
         transform="rotate(-144)"
         id="use38-2" /><use
         xlink:href="#hole-3"
         transform="rotate(-72)"
         id="use39-9" /></mask><mask
       maskUnits="userSpaceOnUse"
       id="mask77"><g
         id="g81"><rect
           x="-60"
           y="-60"
           width="120"
           height="120"
           fill="#ffffff"
           id="rect78" /><circle
           id="circle78"
           cy="-40"
           r="3"
           cx="0" /><use
           xlink:href="#hole-3"
           transform="rotate(72)"
           id="use78" /><use
           xlink:href="#hole-3"
           transform="rotate(144)"
           id="use79" /><use
           xlink:href="#hole-3"
           transform="rotate(-144)"
           id="use80" /><use
           xlink:href="#hole-3"
           transform="rotate(-72)"
           id="use81" /></g></mask><mask
       maskUnits="userSpaceOnUse"
       id="mask85"><g
         id="g89"><rect
           x="-60"
           y="-60"
           width="120"
           height="120"
           fill="#ffffff"
           id="rect85" /><circle
           id="circle85"
           cy="-40"
           r="3"
           cx="0" /><use
           xlink:href="#hole-3"
           transform="rotate(72)"
           id="use86" /><use
           xlink:href="#hole-3"
           transform="rotate(144)"
           id="use87" /><use
           xlink:href="#hole-3"
           transform="rotate(-144)"
           id="use88" /><use
           xlink:href="#hole-3"
           transform="rotate(-72)"
           id="use89" /></g></mask><radialGradient
       inkscape:collect="always"
       xlink:href="#linearGradient106"
       id="radialGradient107"
       cx="32.007404"
       cy="42.768482"
       fx="32.007404"
       fy="42.768482"
       r="28.000545"
       gradientTransform="matrix(0.86259958,-0.86951512,0.88356017,0.87653292,-33.221325,32.683219)"
       gradientUnits="userSpaceOnUse" /><linearGradient
       inkscape:collect="always"
       xlink:href="#linearGradient110"
       id="linearGradient111"
       x1="32.309361"
       y1="57.721008"
       x2="32.309361"
       y2="5.1880388"
       gradientUnits="userSpaceOnUse"
       gradientTransform="matrix(0.96,0,0,0.96,1.28,1.28)" /><linearGradient
       inkscape:collect="always"
       xlink:href="#linearGradient113"
       id="linearGradient112"
       gradientUnits="userSpaceOnUse"
       gradientTransform="matrix(0.952,0,0,0.952,1.536,1.536)"
       x1="32.309361"
       y1="57.721008"
       x2="32.309361"
       y2="5.1880388" /></defs><sodipodi:namedview
     id="namedview4"
     pagecolor="#505050"
     bordercolor="#eeeeee"
     borderopacity="1"
     inkscape:showpageshadow="0"
     inkscape:pageopacity="0"
     inkscape:pagecheckerboard="0"
     inkscape:deskcolor="#505050"
     showgrid="false"
     inkscape:zoom="11.313709"
     inkscape:cx="13.876971"
     inkscape:cy="17.942835"
     inkscape:window-width="2560"
     inkscape:window-height="1368"
     inkscape:window-x="0"
     inkscape:window-y="0"
     inkscape:window-maximized="1"
     inkscape:current-layer="g8" /><g
     inkscape:groupmode="layer"
     inkscape:label="Image"
     id="g8"><path
       id="path33110-3"
       style="fill:#ffffff;stroke-width:0.927736;fill-opacity:1"
       d="M 55,32 A 23,23 0 0 1 32,55 23,23 0 0 1 9,32 23,23 0 0 1 32,9 23,23 0 0 1 55,32 Z"
       inkscape:label="red" /><path
       id="path7"
       style="fill:#ff0000;fill-opacity:1;stroke-width:1.13817"
       inkscape:label="road"
       d="m 47.390003,12.189069 c 0.804944,15.769942 -1.382686,24.078233 -6.338798,36.155955 -0.803845,1.958915 -2.077365,4.498958 -3.515111,7.022681 -3.089798,0.977792 -6.156174,1.301988 -9.056526,0.996179 2.868581,-3.182458 5.750385,-6.979597 7.617617,-10.415389 3.533236,-6.501311 4.656842,-8.745533 6.451533,-15.962265 1.301016,-5.231563 2.19289,-10.838418 2.889728,-18.286714 z m -3.362117,-0.842785 c -0.322664,4.377661 -1.192101,11.85532 -3.628097,19.446245 -1.803403,5.619677 -4.483757,10.92661 -7.579565,15.488557 -2.483818,3.660123 -5.283592,6.865894 -8.190303,9.268969 -3.12265,-1.014744 -5.938876,-2.858179 -8.228879,-5.519139 3.979231,-2.229074 10.594704,-6.084431 15.504274,-12.329246 3.563461,-4.53261 6.638526,-11.731665 8.391333,-18.408063 1.017086,-3.874073 1.365292,-5.96042 1.680494,-8.462253 z m -3.962213,-0.993538 c -0.439131,2.568252 -1.093977,5.715559 -2.092138,9.006935 -1.902025,6.27183 -5.462086,13.086925 -7.099151,15.451354 -3.41867,4.93764 -9.289289,10.012662 -16.920342,11.686338 -0.127014,-0.227763 -0.257773,-0.45073 -0.378914,-0.686147 -1.292287,-2.511404 -2.147045,-5.276917 -2.598234,-8.185035 2.085431,-0.06794 4.481433,-0.273291 6.801192,-0.999244 3.714176,-1.162335 7.194243,-4.296794 10.394216,-6.927589 3.14812,-2.58816 6.239834,-8.669539 7.953073,-13.803015 0.753249,-2.257006 1.3565,-4.376303 1.810405,-6.0784233 z M 35.88607,9.3049807 c -0.331892,1.6709073 -1.158629,5.3180853 -2.614123,8.6174263 -1.414014,3.205327 -3.369323,7.555119 -6.075754,10.036217 -3.975568,3.644581 -7.989775,5.751265 -11.472697,6.048021 -2.193859,0.186945 -3.73231,0.276175 -5.081361,0.257341 -0.112229,-2.295076 0.0046,-4.648725 0.343866,-7.014698 4.012149,0.565684 9.882908,-1.102882 12.680729,-3.510646 3.735915,-3.215072 6.160413,-7.148015 8.223421,-11.821385 0.377301,-0.854701 0.913698,-2.1074813 1.411184,-3.2610673 z" /><g
       id="g114"
       inkscape:label="gear"><path
         id="path96"
         mask="none"
         style="color:#000000;display:inline;fill:url(#radialGradient107);stroke:none;stroke-width:0.533333;stroke-linejoin:round;stroke-opacity:1;-inkscape-stroke:none;fill-opacity:1"
         inkscape:label="gear_bg"
         d="m 31.908203,4.0039062 a 0.80008228,0.8000757 0 0 0 -0.59375,0.3847659 l -1.425781,2.3730465 c -0.248845,0.020672 -0.497362,0.042458 -0.744141,0.070313 L 27.287109,4.7851564 A 0.80008228,0.8000757 0 0 0 26.628906,4.5253908 0.80008228,0.8000757 0 0 0 25.939453,5.0527341 L 25.005859,7.6582034 C 24.765792,7.7273464 24.526174,7.7970298 24.289063,7.873047 L 22.068359,6.2285156 A 0.80008228,0.8000757 0 0 0 21.550781,6.0703127 0.80008228,0.8000757 0 0 0 20.798828,6.7539063 L 20.390625,9.4980468 C 20.171871,9.6114329 19.953279,9.7242291 19.738281,9.84375 L 17.230469,8.6601564 A 0.80008228,0.8000757 0 0 0 16.875,8.5839845 0.80008228,0.8000757 0 0 0 16.089844,9.423828 l 0.134765,2.779297 c -0.189447,0.151303 -0.377525,0.304383 -0.562499,0.460937 l -2.701172,-0.673828 a 0.80008228,0.8000757 0 0 0 -0.181641,-0.02344 0.80008228,0.8000757 0 0 0 -0.789062,0.99414 l 0.673828,2.701172 c -0.156559,0.184975 -0.309634,0.373052 -0.460938,0.5625 L 9.4238283,16.089842 a 0.80008228,0.8000757 0 0 0 -0.763672,1.140625 l 1.1835938,2.507812 c -0.119522,0.214994 -0.2323164,0.43359 -0.3457034,0.652344 L 6.7539061,20.798826 A 0.80008228,0.8000757 0 0 0 6.2285158,22.068357 L 7.8730469,24.28906 C 7.797029,24.526171 7.7273488,24.76579 7.658203,25.005857 l -2.6054687,0.933594 a 0.80008228,0.8000757 0 0 0 -0.2675778,1.347656 l 2.0468746,1.855469 c -0.027941,0.247415 -0.049584,0.496602 -0.070312,0.746094 l -2.3730473,1.423828 a 0.80008228,0.8000757 0 0 0 0,1.373047 l 2.3730473,1.425781 c 0.020672,0.248843 0.042459,0.497364 0.070312,0.744141 l -2.0468746,1.857421 a 0.80008228,0.8000757 0 0 0 0.2675778,1.347657 l 2.6054687,0.933594 c 0.069146,0.240064 0.138826,0.479687 0.2148439,0.716796 l -1.6445311,2.220704 a 0.80008228,0.8000757 0 0 0 0.5253903,1.269531 l 2.7441406,0.408203 c 0.113387,0.218752 0.2261814,0.437348 0.3457034,0.652344 l -1.1835938,2.507812 a 0.80008228,0.8000757 0 0 0 0.763672,1.140625 l 2.7792967,-0.134765 c 0.151596,0.189798 0.30602,0.377191 0.462891,0.562499 l -0.675781,2.701173 a 0.80008228,0.8000757 0 0 0 0.970703,0.970703 l 2.701172,-0.673829 c 0.185078,0.156646 0.372942,0.309552 0.562499,0.460938 l -0.134765,2.779297 a 0.80008228,0.8000757 0 0 0 1.140625,0.763672 l 2.507812,-1.185547 c 0.215224,0.119655 0.433355,0.234151 0.652344,0.347656 l 0.408203,2.744141 a 0.80008228,0.8000757 0 0 0 1.269531,0.52539 l 2.218751,-1.644531 c 0.237691,0.07622 0.478086,0.145527 0.718749,0.214844 l 0.933594,2.605468 a 0.80008228,0.8000757 0 0 0 1.347656,0.267579 l 1.857422,-2.046875 c 0.246746,0.02784 0.49533,0.04964 0.744141,0.07031 l 1.425781,2.373047 a 0.80008228,0.8000757 0 0 0 1.371094,0 l 1.425781,-2.373047 c 0.248811,-0.02067 0.497395,-0.04246 0.744141,-0.07031 l 1.857422,2.046875 a 0.80008228,0.8000757 0 0 0 1.347656,-0.267579 l 0.933594,-2.605468 c 0.240663,-0.06932 0.481058,-0.138621 0.718749,-0.214844 l 2.218751,1.644531 a 0.80008228,0.8000757 0 0 0 1.269531,-0.52539 l 0.408203,-2.744141 c 0.218989,-0.113505 0.43712,-0.228001 0.652344,-0.347656 l 2.507812,1.185547 a 0.80008228,0.8000757 0 0 0 1.140625,-0.763672 l -0.134765,-2.779297 c 0.189557,-0.151386 0.377421,-0.304292 0.562499,-0.460938 l 2.701172,0.673829 a 0.80008228,0.8000757 0 0 0 0.970703,-0.970703 l -0.675781,-2.70117 c 0.156871,-0.185309 0.311295,-0.372701 0.462891,-0.5625 l 2.779297,0.134765 a 0.80008228,0.8000757 0 0 0 0.763672,-1.140624 L 54.15625,44.261719 c 0.119522,-0.214996 0.232316,-0.433592 0.345703,-0.652344 l 2.744141,-0.408203 a 0.80008228,0.8000757 0 0 0 0.52539,-1.269531 l -1.644531,-2.220704 c 0.07602,-0.237109 0.145698,-0.476731 0.214844,-0.716796 l 2.605469,-0.933594 a 0.80008228,0.8000757 0 0 0 0.267578,-1.347656 l -2.046875,-1.857422 c 0.02785,-0.246777 0.04964,-0.495298 0.07031,-0.744141 l 2.373047,-1.425781 a 0.80008228,0.8000757 0 0 0 0,-1.373047 l -2.373047,-1.423828 c -0.02073,-0.249492 -0.04237,-0.498679 -0.07031,-0.746094 l 2.046875,-1.855469 A 0.80008228,0.8000757 0 0 0 58.947266,25.939453 L 56.341797,25.00586 c -0.06915,-0.240068 -0.138826,-0.479686 -0.214844,-0.716798 l 1.644531,-2.220702 a 0.80008228,0.8000757 0 0 0 -0.52539,-1.269532 l -2.744141,-0.408203 c -0.113387,-0.218754 -0.226181,-0.43735 -0.345703,-0.652344 l 1.183594,-2.507812 a 0.80008228,0.8000757 0 0 0 -0.763672,-1.140625 l -2.779297,0.134766 c -0.151304,-0.189448 -0.304379,-0.377526 -0.460938,-0.562501 l 0.673828,-2.701171 a 0.80008228,0.8000757 0 0 0 -0.779296,-0.994141 0.80008228,0.8000757 0 0 0 -0.191407,0.02344 L 48.33789,12.664064 C 48.152916,12.50751 47.964838,12.35443 47.775391,12.203127 L 47.910156,9.4238301 A 0.80008228,0.8000757 0 0 0 47.125,8.5839866 0.80008228,0.8000757 0 0 0 46.769531,8.6601585 L 44.261719,9.8437522 C 44.046721,9.7242312 43.828129,9.611435 43.609375,9.4980489 L 43.201172,6.7539085 A 0.80008228,0.8000757 0 0 0 42.449219,6.0703148 0.80008228,0.8000757 0 0 0 41.931641,6.2285177 L 39.710937,7.8730491 C 39.473826,7.7970319 39.234208,7.7273486 38.994141,7.6582055 L 38.060547,5.0527363 A 0.80008228,0.8000757 0 0 0 37.371094,4.525393 0.80008228,0.8000757 0 0 0 36.712891,4.7851585 L 34.855469,6.8320334 C 34.60869,6.8041829 34.360173,6.7823963 34.111328,6.7617207 L 32.685547,4.3886742 A 0.80008228,0.8000757 0 0 0 31.908203,4.0039083 Z M 32,9.0664065 A 1.6000045,1.5999914 0 0 1 33.599609,10.666015 1.6000045,1.5999914 0 0 1 32,12.265625 1.6000045,1.5999914 0 0 1 30.400391,10.666015 1.6000045,1.5999914 0 0 1 32,9.0664065 Z m -3.777344,2.7519525 2.646485,2.646485 a 1.6001646,1.6001514 0 0 0 2.261718,0 l 2.646485,-2.646485 c 6.167641,1.140369 11.356015,5.015716 14.257812,10.335938 l -1.707031,3.351563 a 1.6001646,1.6001514 0 0 0 0.699219,2.15039 l 3.332031,1.699219 c 0.110667,0.866048 0.173828,1.747629 0.173828,2.644531 0,4.580297 -1.494609,8.796565 -4.015625,12.205078 L 19.791016,15.478515 c 2.448317,-1.807387 5.314073,-3.083732 8.43164,-3.660156 z m -12.742188,7.97461 26.279298,26.279296 a 1.6001646,1.6001514 0 0 0 -0.367188,0.779298 L 40.804688,50.5625 C 38.138072,51.825222 35.154803,52.533203 32,52.533203 c -3.154803,0 -6.138072,-0.707981 -8.804688,-1.970703 l -0.58789,-3.710937 a 1.6001646,1.6001514 0 0 0 -1.830078,-1.330079 l -3.707032,0.587891 C 13.596663,42.434184 11.466797,37.475 11.466797,32 c 0,-0.896902 0.06316,-1.778483 0.173828,-2.644531 l 3.332031,-1.699219 a 1.6001646,1.6001514 0 0 0 0.699219,-2.15039 l -1.707031,-3.351563 c 0.449827,-0.824723 0.960775,-1.610853 1.515624,-2.361328 z m -3.724609,4.015625 a 1.6000045,1.5999914 0 0 1 0.449219,0.07813 1.6000045,1.5999914 0 0 1 1.027344,2.015625 1.6000045,1.5999914 0 0 1 -2.015625,1.027344 1.6000045,1.5999914 0 0 1 -1.027344,-2.017579 1.6000045,1.5999914 0 0 1 1.566406,-1.103515 z m 40.488282,0 a 1.6000045,1.5999914 0 0 1 1.566406,1.103515 1.6000045,1.5999914 0 0 1 -1.027344,2.017579 1.6000045,1.5999914 0 0 1 -2.015625,-1.027344 1.6000045,1.5999914 0 0 1 1.027344,-2.015625 1.6000045,1.5999914 0 0 1 0.449219,-0.07813 z M 19.552734,47.662109 a 1.6000045,1.5999914 0 0 1 0.847657,0.302734 1.6000045,1.5999914 0 0 1 0.355468,2.234376 1.6000045,1.5999914 0 0 1 -2.236328,0.353515 1.6000045,1.5999914 0 0 1 -0.353515,-2.234375 1.6000045,1.5999914 0 0 1 1.386718,-0.65625 z m 24.894532,0 a 1.6000045,1.5999914 0 0 1 1.386718,0.65625 1.6000045,1.5999914 0 0 1 -0.353515,2.234375 1.6000045,1.5999914 0 0 1 -2.236328,-0.353515 1.6000045,1.5999914 0 0 1 0.355468,-2.234376 1.6000045,1.5999914 0 0 1 0.847657,-0.302734 z" /><g
         id="g113"
         inkscape:label="c"><path
           id="path110-5"
           style="fill:url(#linearGradient112);stroke:none;stroke-width:0.592694;stroke-opacity:1"
           d="M 32,8.2 A 23.8,23.8 0 0 0 8.2,32 23.8,23.8 0 0 0 32,55.8 23.8,23.8 0 0 0 55.8,32 23.8,23.8 0 0 0 32,8.2 Z m 0,0.238 A 23.562,23.562 0 0 1 55.562,32 23.562,23.562 0 0 1 32,55.562 23.562,23.562 0 0 1 8.438,32 23.562,23.562 0 0 1 32,8.438 Z"
           inkscape:label="c2" /><path
           id="path110"
           style="fill:url(#linearGradient111);stroke:none;stroke-width:0.597675;stroke-opacity:1"
           d="M 32,8 A 24,24 0 0 0 8,32 24,24 0 0 0 32,56 24,24 0 0 0 56,32 24,24 0 0 0 32,8 Z m 0,0.24 A 23.76,23.76 0 0 1 55.76,32 23.76,23.76 0 0 1 32,55.76 23.76,23.76 0 0 1 8.24,32 23.76,23.76 0 0 1 32,8.24 Z"
           inkscape:label="c1" /></g></g><path
       style="font-size:12.4169px;font-family:'AR PL UKai HK';-inkscape-font-specification:'AR PL UKai HK, Normal';fill:#121212;fill-opacity:0.07;stroke-width:1.00693"
       d="m 8.9266184,27.387752 q 1.3689106,0 2.1434266,0.843538 0.450301,0.489795 0.450301,1.197277 0,1.170067 -0.738492,1.170067 -0.666444,0 -0.8825893,-1.170067 -0.2341541,-1.278909 -1.332887,-1.278909 -0.8285524,0 -1.4769844,1.387752 -0.8105417,1.659864 -0.8105417,3.782311 0,2.367345 0.9005994,3.673467 0.8825886,1.278909 1.8912631,1.278909 1.2248149,0 2.5577039,-2.312922 l 0.468312,0.625849 q -1.386924,2.448978 -3.0260159,2.448978 -1.7111419,0 -2.8278855,-1.387754 Q 5,36.095228 5,33.319721 5,30.925163 5.8825878,29.346934 7.0173455,27.387752 8.9266184,27.387752 Z m 11.2214796,9.197272 q 0.648433,1.414967 1.909273,1.414967 v 0.761902 h -3.94463 v -0.761902 q 1.116743,0 0.468312,-1.414967 l -1.206805,-2.639452 -1.368912,2.639452 q -0.738492,1.414967 0.468312,1.414967 v 0.761902 h -3.008005 v -0.761902 q 1.188793,0 1.909272,-1.414967 l 1.69313,-3.292514 -1.62108,-3.482991 Q 14.780519,28.394556 13.537692,28.394556 V 27.63265 h 3.944628 v 0.761906 q -1.116743,0 -0.468312,1.414963 l 0.882589,1.904762 0.990661,-1.904762 q 0.738493,-1.414963 -0.468312,-1.414963 V 27.63265 h 3.008003 v 0.761906 q -1.17078,0 -1.909272,1.414963 l -1.314876,2.530611 z m 9.96064,-7.59183 -0.144105,1.931969 h -0.360241 q -0.486323,-1.714282 -1.116744,-2.2585 -0.612408,-0.544216 -1.278852,-0.544216 -0.972648,0 -1.476986,0.625849 -0.450299,0.571427 -0.450299,1.496596 0,0.734696 0.234156,1.170069 0.180121,0.35374 1.891261,0.925169 1.873247,0.625849 2.287526,1.442174 0.450299,0.870751 0.450299,1.768709 0,1.387753 -0.702468,2.367344 -0.792529,1.115645 -2.035357,1.115645 -1.639092,0 -3.40427,-1.496596 l -0.252168,-2.367347 0.396265,-0.435373 q 0.486325,1.795916 1.476985,2.721087 0.864575,0.816324 1.549032,0.816324 0.774516,0 1.260841,-0.816324 0.432287,-0.707482 0.432287,-1.578231 0,-0.680272 -0.324217,-1.197278 -0.144105,-0.244896 -1.963307,-0.95238 -1.693128,-0.571429 -2.197467,-1.333332 -0.378251,-0.571429 -0.378251,-1.741498 0,-1.469384 0.828552,-2.394553 0.810541,-0.89796 2.107405,-0.89796 1.404938,0 3.170114,1.632653 z m 5.331553,-4.190474 q -0.306203,-0.489795 -0.306203,-1.170066 0,-0.680272 0.306203,-1.142856 Q 35.764507,22 36.214808,22 q 0.4503,0 0.756504,0.489798 0.324217,0.462584 0.324217,1.142856 0,0.680271 -0.324217,1.170066 -0.306204,0.462585 -0.756504,0.462585 -0.450301,0 -0.774517,-0.462585 z m 1.422949,11.782304 q 0,1.414967 1.188793,1.414967 h 0.9006 v 0.761902 h -5.457637 v -0.761902 h 0.9006 q 1.188792,0 1.188792,-1.414967 v -6.340132 q 0,-0.544216 -2.089392,-0.544216 v -0.761904 q 1.89126,0 2.863908,-1.578231 h 0.504336 z m 8.177452,5.414963 q -1.404937,0 -2.251502,-0.408163 -1.026684,-0.489795 -1.026684,-1.60544 0,-1.088435 0.810542,-2.14966 0.216142,-0.272107 0.612408,-0.598638 -0.360241,-0.163267 -0.450301,-0.244898 -0.612408,-0.517009 -0.612408,-1.115646 0,-0.653061 0.684456,-1.251698 0.450299,-0.408163 0.828552,-0.544218 -0.432286,-0.2449 -0.756504,-0.59864 -0.900599,-0.95238 -0.900599,-2.612245 0,-1.496596 0.846563,-2.557818 0.756505,-0.952382 1.747165,-0.952382 0.774516,0 1.945296,0.707482 0.468314,-0.29932 0.738493,-0.408162 0.522348,-0.353743 0.846565,-0.353743 0.36024,0 0.594397,0.29932 0.432287,0.54422 0.432287,1.034014 0,0.489795 -0.144104,0.761904 -0.144105,0.272109 -0.288192,0.272109 -0.342229,0 -0.630422,-0.517006 -0.288191,-0.517007 -0.738492,-0.517007 -0.108075,0 -0.234156,0.05442 0.756505,1.006802 0.756505,2.421767 0,1.414965 -0.954637,2.367345 -0.954637,0.925171 -2.071381,0.925171 -0.270179,0 -0.450301,-0.05442 -0.774516,0.544218 -0.774516,0.979591 0,0.408162 1.89126,0.08164 1.134759,-0.190466 2.341562,0.816327 1.098733,1.006802 1.098733,2.721085 0,1.333333 -0.918613,2.204082 Q 47.112065,42 45.040683,42 Z m 2.32355,-3.972785 q -0.558374,-0.544218 -1.873251,-0.544218 -0.918611,0 -1.531019,-0.08165 -0.198132,0.108845 -0.306204,0.272109 -0.522349,0.707483 -0.522349,1.551018 0,0.789118 0.630421,1.251703 0.630421,0.462584 1.999333,0.462584 0.954635,0 1.513008,-0.517007 0.612408,-0.571428 0.612408,-1.224491 0,-0.65306 -0.522347,-1.170064 z m -4.016678,-8.163261 q 0,1.687073 0.522347,2.802718 0.450301,0.95238 1.206805,0.95238 0.486325,0 0.882588,-0.435373 0.52235,-0.571427 0.52235,-1.224487 0,-1.687076 -0.828553,-2.911563 -0.558373,-0.816326 -1.26084,-0.816326 -0.342228,0 -0.648434,0.435373 -0.396263,0.544218 -0.396263,1.197278 z m 9.438292,0.707482 v 6.013601 q 0,1.414967 1.188793,1.414967 v 0.761902 h -3.656437 v -0.761902 q 1.188791,0 1.188791,-1.414967 v -5.523803 q 0,-1.387756 -1.17078,-1.387756 v -0.598638 l 2.05337,-1.442177 h 0.396263 v 2.013604 q 1.60307,-2.312925 3.134089,-2.312925 1.891262,0 1.891262,2.938774 v 6.312921 q 0,1.414967 1.188793,1.414967 v 0.761902 h -3.656439 v -0.761902 q 1.188792,0 1.188792,-1.414967 v -6.312921 q 0,-1.714282 -1.242828,-1.714282 -0.918612,0 -2.503669,2.013602 z"
       id="text115"
       aria-label="cxsign"
       inkscape:label="cxsign" /></g></svg>
