<?xml version="1.0" encoding="UTF-8" standalone="no"?>
<!-- Created with Inkscape (http://www.inkscape.org/) -->

<svg
   version="1.1"
   id="svg2"
   width="64"
   height="64"
   viewBox="0 0 64 64"
   sodipodi:docname="xddcc.svg"
   inkscape:version="1.3.2 (091e20e, 2023-11-25)"
   xml:space="preserve"
   xmlns:inkscape="http://www.inkscape.org/namespaces/inkscape"
   xmlns:sodipodi="http://sodipodi.sourceforge.net/DTD/sodipodi-0.dtd"
   xmlns:xlink="http://www.w3.org/1999/xlink"
   xmlns="http://www.w3.org/2000/svg"
   xmlns:svg="http://www.w3.org/2000/svg"><defs
     id="defs6"><linearGradient
       id="linearGradient20390"
       inkscape:swatch="solid"><stop
         style="stop-color:#059aff;stop-opacity:1;"
         offset="0"
         id="stop20388" /></linearGradient><mask
       id="holes"><rect
         x="-60"
         y="-60"
         width="120"
         height="120"
         fill="#ffffff"
         id="rect35" /><circle
         id="hole"
         cy="-40"
         r="3"
         cx="0" /><use
         xlink:href="#hole"
         transform="rotate(72)"
         id="use36" /><use
         xlink:href="#hole"
         transform="rotate(144)"
         id="use37" /><use
         xlink:href="#hole"
         transform="rotate(-144)"
         id="use38" /><use
         xlink:href="#hole"
         transform="rotate(-72)"
         id="use39" /></mask><mask
       id="holes-7"><rect
         x="-60"
         y="-60"
         width="120"
         height="120"
         fill="#ffffff"
         id="rect35-5" /><circle
         id="hole-3"
         cy="-40"
         r="3"
         cx="0" /><use
         xlink:href="#hole-3"
         transform="rotate(72)"
         id="use36-5" /><use
         xlink:href="#hole-3"
         transform="rotate(144)"
         id="use37-6" /><use
         xlink:href="#hole-3"
         transform="rotate(-144)"
         id="use38-2" /><use
         xlink:href="#hole-3"
         transform="rotate(-72)"
         id="use39-9" /></mask><mask
       maskUnits="userSpaceOnUse"
       id="mask77"><g
         id="g81"><rect
           x="-60"
           y="-60"
           width="120"
           height="120"
           fill="#ffffff"
           id="rect78" /><circle
           id="circle78"
           cy="-40"
           r="3"
           cx="0" /><use
           xlink:href="#hole-3"
           transform="rotate(72)"
           id="use78" /><use
           xlink:href="#hole-3"
           transform="rotate(144)"
           id="use79" /><use
           xlink:href="#hole-3"
           transform="rotate(-144)"
           id="use80" /><use
           xlink:href="#hole-3"
           transform="rotate(-72)"
           id="use81" /></g></mask><mask
       maskUnits="userSpaceOnUse"
       id="mask85"><g
         id="g89"><rect
           x="-60"
           y="-60"
           width="120"
           height="120"
           fill="#ffffff"
           id="rect85" /><circle
           id="circle85"
           cy="-40"
           r="3"
           cx="0" /><use
           xlink:href="#hole-3"
           transform="rotate(72)"
           id="use86" /><use
           xlink:href="#hole-3"
           transform="rotate(144)"
           id="use87" /><use
           xlink:href="#hole-3"
           transform="rotate(-144)"
           id="use88" /><use
           xlink:href="#hole-3"
           transform="rotate(-72)"
           id="use89" /></g></mask></defs><sodipodi:namedview
     id="namedview4"
     pagecolor="#505050"
     bordercolor="#eeeeee"
     borderopacity="1"
     inkscape:showpageshadow="0"
     inkscape:pageopacity="0"
     inkscape:pagecheckerboard="0"
     inkscape:deskcolor="#505050"
     showgrid="false"
     inkscape:zoom="8"
     inkscape:cx="-2.6875"
     inkscape:cy="12.6875"
     inkscape:window-width="1455"
     inkscape:window-height="955"
     inkscape:window-x="0"
     inkscape:window-y="0"
     inkscape:window-maximized="0"
     inkscape:current-layer="g8" /><g
     inkscape:groupmode="layer"
     inkscape:label="Image"
     id="g8"><path
       id="path33110-3"
       style="fill:#0e0119;fill-opacity:1;stroke-width:1.08909"
       d="M 59,32 A 27,27 0 0 1 32,59 27,27 0 0 1 5,32 27,27 0 0 1 32,5 27,27 0 0 1 59,32 Z"
       inkscape:label="red" /><g
       id="g4"
       transform="matrix(1.1605784,0.09852524,-0.09701175,1.1427503,-2.4973946,-8.8256029)"><path
         style="fill:#fd00da;fill-opacity:1;stroke-width:1.06677"
         d="m 19.45207,39.919299 c 0.415745,-0.464673 -2.356728,0.299156 -0.78691,-0.963415 2.052543,-1.650816 2.966394,-2.591766 5.400369,-5.863283 0.716393,-0.962907 5.093358,-4.589753 8.468418,-6.798586 1.394537,-0.912664 2.929174,-1.794675 3.30359,-2.175432 1.174967,-1.194867 2.285423,-2.539535 2.997363,-2.939263 1.049795,-0.58942 2.229848,-1.025853 2.338351,-0.844972 0.137738,0.229617 -0.04223,1.670931 -0.439301,2.788683 -0.123742,0.348329 -0.436114,0.867262 -0.576697,1.171617 -0.465443,1.007659 -1.042089,1.422481 -1.042089,1.422481 0,0 0.474155,-0.10926 1.232701,-0.265717 0.956088,-0.197209 1.757221,-0.732577 1.757221,-0.732577 0,0 -0.148877,0.320368 -0.424365,0.700619 -0.243611,0.336251 -0.366779,0.171141 -0.316166,0.3336 0.06136,0.196944 0.154032,0.240159 0.847253,0.599635 0.133783,0.06937 0.77638,0.13749 1.373785,-0.02143 0.826124,-0.219764 3.494474,-0.530347 4.283572,-0.28076 0.379714,0.120102 0.979028,0.411633 1.356517,0.730963 0.467811,0.395738 0.76348,0.975029 0.76348,0.975029 0,0 -0.437248,0.165674 -0.919213,0.521945 -0.893,0.660112 -2.176143,1.866813 -2.78442,3.12679 -4.240687,8.784099 -13.337665,13.901946 -20.95316,13.256601 -3.251039,-0.275496 -8.721012,-1.984058 -9.086069,-3.719219 -0.17679,-0.840307 0.825541,1.637036 3.20577,-1.023314 z"
         id="path1"
         sodipodi:nodetypes="ssssssssscscsssssscssssss" /><path
         style="fill:#fd00db;fill-opacity:1;stroke-width:0.777282"
         d="m 41.088616,24.768019 c 0,0 0.84234,-0.812497 1.222733,-1.576701 0.369942,-0.743163 0.660859,-1.388864 1.358648,-1.870947 0.873574,-0.603534 1.503335,-0.370856 1.491582,-0.246447 -0.0191,0.202203 -0.17619,0.618634 -0.671299,1.196641 -0.271312,0.316738 -0.977146,0.865271 -1.18588,1.140513 -0.19111,0.252005 -0.707988,0.66338 -1.194597,0.915175 -0.419413,0.217024 -0.81036,0.279577 -1.021187,0.441766 z"
         id="path4"
         sodipodi:nodetypes="cssssssc" /><path
         style="fill:#15fd00;fill-opacity:1"
         d="m 35.450212,26.128717 c 3.622326,1.645964 6.726442,6.564542 3.875458,11.110973 -1.956277,3.119651 -6.040784,5.808242 -10.193173,5.122489 -2.532765,-0.418277 -6.16566,-3.519604 -6.230854,-4.3931 -0.11634,-1.558698 3.457223,-2.232966 5.94981,-4.417978 2.54501,-2.230966 5.28965,-4.836934 6.598759,-7.422384 z"
         id="path3"
         sodipodi:nodetypes="cssssc" /><path
         id="path3-8"
         style="fill:#fdc200;fill-opacity:1;stroke-width:1.15577"
         d="m 32.29839,30.108 c -1.269618,1.308386 -2.667989,2.571824 -4.02539,3.74414 0.446862,0.763128 1.117575,1.506834 1.742187,2.816406 0.545154,1.142978 1.069806,2.096833 1.699794,2.710731 1.361387,1.326617 3.319035,1.492884 4.837316,0.148644 1.09392,-0.968524 1.161356,-2.553247 0.18164,-4.376953 C 35.900113,33.598835 34.382052,31.384082 32.29839,30.108 Z"
         transform="matrix(0.85855113,0,0,0.87194548,4.6025769,4.0097993)"
         sodipodi:nodetypes="ccssssc" /></g></g></svg>
