<?xml version="1.0" encoding="UTF-8" standalone="no"?>
<!-- Created with Inkscape (http://www.inkscape.org/) -->

<svg
   version="1.1"
   id="svg2"
   width="64"
   height="64"
   viewBox="0 0 64 64"
   sodipodi:docname="genshin-impact.svg"
   inkscape:version="1.2.2 (1:1.2.2+202212051551+b0a8486541)"
   xmlns:inkscape="http://www.inkscape.org/namespaces/inkscape"
   xmlns:sodipodi="http://sodipodi.sourceforge.net/DTD/sodipodi-0.dtd"
   xmlns:xlink="http://www.w3.org/1999/xlink"
   xmlns="http://www.w3.org/2000/svg"
   xmlns:svg="http://www.w3.org/2000/svg">
  <defs
     id="defs6">
    <linearGradient
       id="linearGradient20390"
       inkscape:swatch="solid">
      <stop
         style="stop-color:#059aff;stop-opacity:1;"
         offset="0"
         id="stop20388" />
    </linearGradient>
    <mask
       maskUnits="userSpaceOnUse"
       id="mask12882-9">
      <circle
         style="display:inline;fill:#f8fefe;fill-opacity:1;stroke-width:1.12291"
         id="circle12884-3"
         cx="1066.6666"
         cy="800"
         r="900" />
    </mask>
    <mask
       maskUnits="userSpaceOnUse"
       id="mask12886-7">
      <circle
         style="display:inline;fill:#f8fefe;fill-opacity:1;stroke-width:1.12291"
         id="circle12888-5"
         cx="1066.6666"
         cy="800"
         r="900" />
    </mask>
    <mask
       maskUnits="userSpaceOnUse"
       id="mask12890-9">
      <circle
         style="display:inline;fill:#f8fefe;fill-opacity:1;stroke-width:1.12291"
         id="circle12892-2"
         cx="1066.6666"
         cy="800"
         r="900" />
    </mask>
    <linearGradient
       inkscape:collect="always"
       id="linearGradient18969">
      <stop
         style="stop-color:#171353;stop-opacity:1;"
         offset="0"
         id="stop18965" />
      <stop
         style="stop-color:#221e7c;stop-opacity:0;"
         offset="1"
         id="stop18967" />
    </linearGradient>
    <mask
       maskUnits="userSpaceOnUse"
       id="mask12898-2">
      <circle
         style="display:inline;fill:#f8fefe;fill-opacity:1;stroke-width:1.12291"
         id="circle12900-3"
         cx="1066.6666"
         cy="800"
         r="900" />
    </mask>
    <mask
       maskUnits="userSpaceOnUse"
       id="mask12914-9">
      <circle
         style="display:inline;fill:#f8fefe;fill-opacity:1;stroke-width:1.12291"
         id="circle12916-7"
         cx="1066.6666"
         cy="800"
         r="900" />
    </mask>
    <mask
       maskUnits="userSpaceOnUse"
       id="mask12918-3">
      <circle
         style="display:inline;fill:#f8fefe;fill-opacity:1;stroke-width:1.12291"
         id="circle12920-6"
         cx="1066.6666"
         cy="800"
         r="900" />
    </mask>
    <mask
       maskUnits="userSpaceOnUse"
       id="mask12922-1">
      <circle
         style="display:inline;fill:#f8fefe;fill-opacity:1;stroke-width:1.12291"
         id="circle12924-2"
         cx="1066.6666"
         cy="800"
         r="900" />
    </mask>
    <linearGradient
       inkscape:collect="always"
       xlink:href="#linearGradient18969"
       id="linearGradient3480"
       gradientUnits="userSpaceOnUse"
       gradientTransform="matrix(0.05546413,0.00564674,-0.00573155,0.05316646,113.02347,19.907042)"
       x1="1129.5485"
       y1="397.02084"
       x2="1267.4508"
       y2="489.43747" />
  </defs>
  <sodipodi:namedview
     id="namedview4"
     pagecolor="#505050"
     bordercolor="#eeeeee"
     borderopacity="1"
     inkscape:showpageshadow="0"
     inkscape:pageopacity="0"
     inkscape:pagecheckerboard="0"
     inkscape:deskcolor="#505050"
     showgrid="false"
     inkscape:zoom="8"
     inkscape:cx="20.625"
     inkscape:cy="34.125"
     inkscape:window-width="2560"
     inkscape:window-height="1408"
     inkscape:window-x="0"
     inkscape:window-y="32"
     inkscape:window-maximized="1"
     inkscape:current-layer="g8" />
  <g
     inkscape:groupmode="layer"
     inkscape:label="Image"
     id="g8">
    <circle
       style="fill:#505050;fill-opacity:1;stroke-width:1.08908"
       id="path33110"
       cx="32"
       cy="32"
       r="27"
       inkscape:label="背景" />
    <path
       id="path2460"
       style="fill:#2d2d2d;fill-opacity:1;display:inline;stroke-width:0.0806334"
       inkscape:label="阴影"
       d="m -113.84852,3.1502231 -0.32813,2.7089844 0.66211,0.048828 0.0762,0.7714844 -1.13867,-0.1425782 -0.58594,0.3417969 -0.4668,1.46875 c 0,0 0.33158,0.244646 0.57617,0.261719 0.24459,0.01716 0.7461,-0.240235 0.7461,-0.240235 l 0.041,-0.4648434 1.19531,0.2636724 0.22266,1.199218 c -1.66642,0.7494284 -3.47305,1.7838764 -5.35742,3.2226564 -3.79642,2.898733 -3.9975,6.31867 -2.9668,7.490234 0.54355,0.61784 1.15936,1.035635 1.75976,1.482422 -1.59729,2.598554 -2.52158,5.064333 -2.57031,5.242187 -0.0819,0.299057 -0.66415,2.227332 -2.62109,3.988282 -1.95695,1.760947 -4.33399,1.613281 -4.33399,1.613281 0,0 0.2672,0.798447 0.42465,1.130981 0.21477,0.453595 0.45764,1.026709 0.5876,1.294131 0.10715,0.220467 0.23679,0.459384 0.39596,0.629575 0.9388,1.003812 2.43228,1.446139 4.00195,1.216797 0.46267,-0.06758 0.85093,-0.114639 0.86133,-0.103515 0.0104,0.01107 -0.0225,0.503554 -0.0723,1.09375 -0.047,0.277144 -0.0461,0.556979 -0.0791,0.837834 -0.0747,1.231913 -0.10921,2.287774 -0.1201,3.750056 -0.037,4.969149 1.00931,7.725538 2.48438,10.064453 1.49272,2.366912 4.83007,3.814453 4.83007,3.814453 0,0 -0.0732,-0.118449 -0.33007,-0.412109 -0.25693,-0.293665 -0.86904,-1.808921 -1.24805,-2.679687 -0.37901,-0.870771 -0.89196,-3.193068 -0.91211,-4.007813 -0.0129,-0.522338 0.0494,-0.843783 0.0996,-1.242187 -0.066,3.882071 1.40126,5.980013 4.88867,6.914062 0.19238,0.05152 0.17135,0.03018 0.3086,0.06445 0.0874,0.02322 0.17266,0.03605 0.25781,0.05469 0.16056,0.03269 0.40545,0.08802 0.41406,0.06055 0.36996,0.05777 0.74015,0.125194 1.11524,0.166015 1.18787,0.129294 4.18945,-0.357422 4.18945,-0.357422 0,0 -0.36401,-0.0032 -1.04883,-0.140625 -0.68482,-0.137451 -2.21537,-0.762276 -4.22266,-1.80664 -1.18955,-0.618907 -1.93445,-1.699298 -2.45898,-2.669922 0.42575,0.179922 0.96218,0.345439 1.61133,0.501953 2.85714,0.688874 11.87754,1.194088 17.419915,-0.984375 0.177993,-0.06996 0.355611,-0.14735 0.53125,-0.228516 0.673328,0.170454 1.630024,0.153535 2.234375,0.08984 -0.662885,1.299558 -1.95004,3.058562 -3.601562,3.267578 -1.4647,0.185373 -2.972656,-0.386719 -2.972656,-0.386719 0,0 0.228408,0.781133 1.191406,2.400391 0.01528,0.02422 0.04292,0.02162 0.05859,0.04492 0.17152,0.319777 0.559743,0.760642 1.720703,1.328125 0.483282,0.236231 2.979059,0.45484 5.484375,-0.498047 2.468859,-0.939033 4.227989,-2.792246 5.017578,-3.720703 -0.0017,0.0032 -0.01563,0.0293 -0.01563,0.0293 0.0032,0.06813 0.380168,-0.387332 0.814453,-0.908203 1.124298,-1.348449 1.960313,-3.161973 2.558594,-4.81836 0.164677,-0.455926 0.37352,-1.5961 0.49414,-2.511718 0,0 0.344065,-1.84253 0.3125,-2.771485 -0.09294,-2.734857 -0.408001,-3.932335 -1.472656,-8.076172 -0.09203,-0.358212 -0.22475,-1.314278 -0.273437,-1.777343 2.424142,-0.138679 4.273396,-1.700427 6.15039,-4.355469 0.29193,-0.41294 0.743744,-1.079641 0.873045,-1.316403 0.192151,-0.351846 0.582031,-0.992188 0.582031,-0.992188 0,0 -1.022917,0.0017 -2.902343,0.117188 -1.879427,0.11553 -3.168124,-0.255633 -4.861329,-0.792969 -1.693193,-0.537338 -3.597656,-2.955078 -3.597656,-2.955078 0,0 0.235167,-0.133834 0.265625,-0.142578 0.713251,-0.155554 1.292386,-0.608855 2.021485,-1.085938 0.34659,-0.22679 0.523747,-0.410143 0.791015,-0.738281 0.205327,-0.242285 0.32128,-0.350823 0.509119,-0.637516 0.271275,-0.375631 0.580518,-0.793813 0.805334,-1.079284 0,0 -0.206158,0.138706 -1.742187,0.40625 -1.536013,0.267546 -4.385153,-0.144516 -6.308594,-1.064453 -1.029154,-0.492219 -3.704275,-1.781537 -7.070312,-2.691406 0.1147,-0.396071 0.15384,-0.555379 0.255859,-0.888672 0.166966,-0.545504 0.422769,-2.759933 -0.931641,-3.7265624 -2.299169,-1.6408944 -3.215799,-1.4571948 -4.806639,-1.5800769 -0.55399,-0.042744 -3.73839,-0.328868 -8.11132,1.3222659 l -0.29102,-0.9550784 0.88281,-1.0898437 0.42969,0.3691406 c 0,0 0.45632,-0.046775 0.62695,-0.1757813 0.0922,-0.069703 0.17383,-0.2929687 0.17383,-0.2929687 l -0.68164,-1.2265625 -0.8418,-0.070312 -1.17968,1.1074219 -0.17188,-0.8964844 0.56836,-0.3691406 z m 8.05078,7.1445309 c 4.80624,-0.3573217 6.015325,1.710178 6.052726,3.078125 -2.517806,-0.512589 -5.230866,-0.816502 -8.046866,-0.265625 -0.93653,0.303812 -1.70272,0.615663 -2.50586,0.923828 l -0.43946,-1.128906 0.84766,0.130859 c 0,0 0.36024,-0.284975 0.44727,-0.671875 0.087,-0.386902 -0.27344,-0.746094 -0.27344,-0.746094 l -1.00196,-0.08594 -0.0234,-0.07422 c 1.476,-0.564324 3.10001,-1.023111 4.94336,-1.160156 z m -6.96289,2.101562 -0.61914,0.447266 c 0,0 -0.0156,0.391614 0.15625,0.640625 0.17179,0.249033 0.53515,0.167969 0.53515,0.167969 l 0.78711,-0.626954 0.27344,1.375 -0.89844,0.583985 0.0586,0.06445 c -0.8854,0.469155 -1.75605,0.924796 -2.70703,1.689453 -1.12679,0.7666 -2.10856,1.775455 -2.95703,2.855469 -0.64548,-1.63255 0.0895,-2.474392 0.90234,-3.91211 0.2605,-0.460748 1.95116,-1.963371 4.46875,-3.285156 z m -7.41797,21.830078 c 0,0 0.0267,0.08809 0.0527,0.375 0.026,0.286906 0.30583,3.10741 0.46093,4.142578 0.15511,1.03517 0.39438,1.795776 1.18946,3.509766 0.79507,1.713991 1.34274,2.125247 2.42578,3.042969 0.28856,0.244515 0.48476,0.263573 0.86523,0.492187 0.41603,1.145712 0.69532,1.806641 0.69532,1.806641 -0.36724,0.246933 -0.6433,0.475601 -0.83985,0.691406 -0.12891,-0.687879 -0.22265,-2.449219 -0.22265,-2.449219 0,0 -0.57564,-0.48924 -1.09571,-0.894531 -0.52007,-0.405289 -0.75836,-0.607346 -1.38086,-1.578125 -0.55084,-0.859041 -1.21843,-2.397753 -1.49218,-3.380859 -0.2699,-0.96924 -0.57451,-3.530044 -0.60547,-4.050781 -0.031,-0.520738 -0.0527,-1.707032 -0.0527,-1.707032 z m 29.55468,12.185547 0.0625,0.01367 c 0,0 -0.109794,0.130067 -0.125,0.150391 0.02185,-0.04417 0.04036,-0.117096 0.0625,-0.164063 z m -1.873047,1.841797 c -0.204312,0.141486 -0.380957,0.370896 -0.583984,0.447266 -0.350143,0.131708 -0.470189,0.04505 -0.853516,0.0957 0.09023,-0.05389 0.180143,-0.109689 0.269531,-0.166016 0.465699,-0.123478 0.778399,-0.211948 1.167969,-0.376953 z"
       sodipodi:nodetypes="cccccccccccccscsscsssscccsscssscscccscsscssccscccssccsscsscsscssccscccsscsscccccscccccccccccccscccscsscccccccsccscssccccssssccccccscccccsc"
       transform="translate(135.29406,3.0059239)" />
    <path
       style="display:inline;fill:#fdebd5;fill-opacity:1;stroke-width:0.0806334"
       d="m 150.09711,61.670193 c 0,0 1.09719,5.658474 1.69837,7.404168 0.60118,1.745691 1.02892,2.74509 1.02892,2.74509 -2.11494,1.422105 -1.32697,2.296578 1.53017,2.985453 2.85714,0.688875 11.87808,1.194012 17.42046,-0.984453 5.54237,-2.178447 9.99808,-10.005147 9.99808,-10.005147 l -3.5247,-14.522535 -20.96474,-2.970893 -8.39268,8.869579 z"
       id="path2460-4"
       inkscape:label="脸部"
       transform="translate(-133.375,-22.375002)" />
    <path
       style="display:inline;fill:#fad07c;fill-opacity:1;stroke-width:1.4768"
       d="m 724.89304,406.15642 c 0,0 -15.36634,4.85386 -32.86304,-26.51797 -17.4967,-31.37187 -4.82188,-48.35387 7.37719,-77.76709 6.57727,-15.85861 79.02094,-100.63931 193.50977,-121.8486 117.15134,-21.70248 121.99144,55.36964 110.23584,66.61194 -14.56755,13.93142 30.2017,19.414 30.2017,19.414 0,0 5.3774,-33.73181 9.1188,-54.02881 1.9289,-10.46518 2.2299,-52.1355 -23.783,-67.55392 -44.15808,-26.17342 -60.16014,-21.01289 -88.76744,-20.28582 -14.5612,0.37141 -129.4038,-0.42933 -253.88622,122.02526 -62.13214,61.12087 -59.14068,125.12726 -38.50686,144.97156 31.43721,30.23427 70.87827,46.11973 88.59595,51.22949 17.6328,5.08524 -1.23269,-36.25004 -1.23269,-36.25004 z"
       id="path9742-9-5"
       sodipodi:nodetypes="csssscssssssc"
       inkscape:label="头饰3"
       mask="none"
       transform="matrix(0.05546413,0.00564674,-0.00573155,0.05316646,-20.35153,-2.46796)" />
    <path
       id="path896"
       mask="none"
       style="display:inline;fill:#fcfeef;fill-opacity:1;stroke-width:1.4768"
       inkscape:label="头发2"
       d="M 961.11462 221.29374 C 928.90184 221.51744 895.51348 225.72603 862.74335 236.11322 C 813.52496 258.7904 778.76662 275.52726 738.05931 317.64804 C 664.67218 382.26772 636.90981 512.10358 636.02346 517.82266 C 635.13695 523.54172 628.46125 560.51938 596.94678 596.98793 C 565.43231 633.45644 522.72159 635.21526 522.72159 635.21526 C 522.72159 635.21526 530.16111 663.36111 549.21377 684.05242 C 568.26619 704.74035 557.1298 683.98313 557.1298 683.98313 L 649.66623 637.23524 C 649.66623 637.23524 639.80281 714.57599 648.69657 807.09545 C 657.59025 899.61485 681.5494 948.91468 712.35235 989.63545 C 743.52411 1030.8436 805.8252 1051.4533 805.8252 1051.4533 C 805.8252 1051.4533 804.25795 1049.3918 799.11146 1044.415 C 793.96492 1039.4382 780.1353 1012.4068 771.702 996.92433 C 763.2687 981.44183 749.69071 939.20418 747.76504 924.0843 C 745.83903 908.96442 746.79178 887.74552 746.79178 887.74552 C 746.79178 887.74552 783.98281 990.35561 815.15664 1007.1504 C 846.3305 1023.9449 864.5973 1022.4688 885.66956 1022.6214 C 907.10254 1022.7769 959.69684 1008.0363 959.69684 1008.0363 C 959.69684 1008.0363 953.1991 1008.6669 940.72174 1007.4067 C 928.24438 1006.1466 899.74736 997.42096 861.94177 981.79294 C 824.13616 966.16508 800.551 917.80091 796.91457 909.68018 C 793.2782 901.5595 787.31754 859.74659 787.31754 859.74659 C 787.31754 859.74659 776.0763 851.73846 766.02221 845.18323 C 755.9681 838.62805 751.3648 835.31649 738.39683 818.43457 C 726.92151 803.49577 712.02269 776.13674 705.2505 758.36492 C 698.57375 740.84376 688.21812 693.77784 686.66471 684.14835 C 685.1116 674.51882 682.44236 652.48951 682.44236 652.48951 C 682.44236 652.48951 683.08843 654.0778 684.10379 659.36637 C 685.11895 664.65491 695.53218 716.59937 700.2885 735.56454 C 705.0448 754.52973 710.80918 768.22363 728.28372 798.60587 C 745.75822 828.98812 756.31598 835.60204 777.39527 850.62454 C 798.47449 865.64702 838.80706 878.8911 838.80706 878.8911 C 838.80706 878.8911 832.00773 868.13242 809.78443 839.98426 C 787.56119 811.83605 783.23345 787.61349 778.13642 764.76718 C 773.03946 741.92094 767.26187 669.41658 767.26187 669.41658 L 765.20083 572.79929 C 765.20083 572.79929 802.31435 410.16295 810.00678 444.46048 C 817.6992 478.75809 841.50178 585.67167 917.07973 652.88011 C 992.65761 720.08817 1066.3509 716.92709 1066.3509 716.92709 C 1066.3509 716.92709 1025.6592 673.85534 1000.8782 642.54728 C 976.09705 611.23918 952.93327 553.43652 946.54434 533.51789 C 940.1555 513.59926 932.38195 456.44368 932.38195 456.44368 C 932.38195 456.44368 1022.7042 553.48422 1050.9793 576.35449 C 1079.2544 599.2248 1205.2268 600.63886 1205.2268 600.63886 C 1205.2268 600.63886 1211.3737 620.04564 1219.2768 669.12878 C 1227.1801 718.21196 1219.6114 772.23791 1212.5921 789.81864 C 1205.5728 807.39942 1199.8628 819.64104 1199.8628 819.64104 L 1234.0872 823.35331 C 1234.0872 823.35331 1213.8426 859.91583 1193.5635 870.45477 C 1173.2848 880.99347 1142.6742 881.99457 1142.6742 881.99457 C 1142.6742 881.99457 1146.3887 884.29823 1159.2071 886.59396 C 1172.0256 888.88986 1191.135 886.34333 1201.9557 883.85376 C 1212.7766 881.36404 1241.2109 871.16175 1241.2109 871.16175 L 1228.1016 925.93154 L 1112.029 985.502 C 1112.029 985.502 1111.6991 1000.2523 1149.0137 1014.5629 C 1158.0867 1018.0425 1203.0166 1017.3823 1245.8642 994.90881 C 1288.7116 972.43522 1317.0259 933.52444 1329.0294 915.06518 C 1341.0318 896.60608 1340.7357 894.42525 1340.7357 894.42525 L 1378.0186 732.13317 C 1378.0186 732.13317 1363.3355 693.39098 1355.0404 634.83531 C 1346.7453 576.27968 1329.1215 514.19178 1329.1215 514.19178 L 1352.7844 509.07031 C 1352.7844 509.07031 1424.914 449.5572 1435.7099 427.92964 C 1446.5056 406.30212 1454.0497 385.60889 1454.0497 385.60889 C 1454.0497 385.60889 1435.8451 387.57364 1402.5497 393.28281 C 1369.2542 398.99207 1345.5581 394.52766 1314.3285 387.73783 C 1283.0991 380.94795 1244.452 339.57771 1244.452 339.57771 C 1244.452 339.57771 1273.0641 328.35785 1289.3148 307.88537 C 1297.938 296.89581 1309.0515 282.18099 1315.707 262.72564 C 1315.707 262.72564 1312.3319 265.693 1285.4528 273.57999 C 1258.574 281.46699 1206.9356 279.20102 1170.8644 265.72914 C 1143.8109 255.6252 1057.753 220.62267 961.11462 221.29374 z "
       transform="matrix(0.05546413,0.00564674,-0.00573155,0.05316646,-20.35153,-2.46796)" />
    <path
       id="path890"
       mask="none"
       style="display:inline;fill:#ac9487;fill-opacity:1;stroke-width:1.96906"
       inkscape:label="头发1"
       transform="matrix(0.05546413,0.00564674,-0.00573155,0.05316646,-20.35153,-2.46796)"
       d="m 1205.4136,873.59508 c 0,0 56.1776,-21.79051 68.7293,-40.52396 5.0302,-7.50764 5.2127,-7.60006 3.8856,-1.96905 -4.2746,18.13614 -14.3243,45.85728 -23.2028,64.0026 -5.5648,11.37275 -10.4699,21.47788 -10.9004,22.45578 -0.4296,0.9776 8.8149,-8.52055 20.5449,-21.10765 11.7302,-12.58709 21.6703,-22.54274 22.0894,-22.12358 1.1149,1.11491 -16.9885,27.49021 -31.2505,45.52949 -32.6574,41.307 -60.294,67.15846 -85.2035,79.69975 -24.7776,12.47494 -42.3394,10.20574 -55.4876,-7.1697 -20.2872,-28.30174 -25.8704,-42.40841 -25.8704,-42.40841 0,0 28.0156,7.77862 53.7806,1.55551 32.792,-7.92036 55.9962,-53.13985 62.8854,-77.94078 z M 847.60278,1020.163 c -64.89704,-10.9248 -95.2902,-47.67872 -100.97287,-122.10464 l -1.20281,-15.75448 11.77302,23.13971 c 27.94177,54.91908 57.70863,88.30224 97.26847,109.08531 17.2383,9.0562 16.59562,9.5836 -6.86572,5.6341 z M 1143.6886,881.10348 c 1.7713,-1.4461 10.794,-7.89088 15.4317,-11.65282 11.9776,-9.71571 32.3773,-34.12445 38.0708,-45.55276 2.8757,-5.77245 8.7697,-12.83909 14.5436,-17.43765 11.7099,-9.32595 23.5842,-24.36702 31.8513,-40.34566 l 6.1131,-11.81592 -1.1634,8.86193 c -5.0307,38.3249 -14.8216,77.24304 -22.6916,87.43538 -8.4787,10.98054 -44.6874,28.30954 -68.1777,31.2867 -8.394,1.06428 -16.7244,1.46273 -13.978,-0.77924 z m 189.5652,19.74418 c 17.2843,-59.23728 34.4786,-122.15595 31.5112,-181.99657 -0.7521,-15.16369 -2.2198,-32.44441 -3.2627,-38.40154 -1.0423,-5.95716 -2.7231,-16.94534 -3.7349,-24.4182 -2.5454,-18.8 -10.9662,-68.24207 -14.4523,-84.85637 -1.5885,-7.56966 -3.9562,-14.47241 -3.7635,-14.64202 27.0764,75.03085 34.8601,96.76386 41.7755,147.46895 2.3489,17.22311 -0.2468,52.14374 -0.2468,52.14374 -0.3908,17.26325 -1.9208,38.87433 -3.9811,47.66861 -7.4852,31.94976 -18.9236,67.28371 -36.3818,94.50072 -6.7436,10.51322 -12.5752,19.69734 -12.7631,18.43581 0,0 2.5763,-6.56997 3.0174,-8.0818 z m -42.7416,-424.53589 c -11.5805,-27.98833 -21.6118,-52.37555 -22.2919,-54.1937 -0.9606,-2.56762 3.5245,-1.38577 20.085,5.29243 58.4293,23.56287 103.8914,19.19135 146.8046,-14.11653 l 11.2924,-8.76474 -6.9953,16.34744 c -28.264,66.05166 -65.0388,99.59594 -115.0612,104.95423 l -12.7781,1.36878 z M 1219.166,343.49583 c -17.7403,-2.82733 -36.9571,-14.16621 -56.8131,-33.52308 l -18.1061,-17.65088 9.9282,4.8364 c 37.8678,18.44661 81.9666,15.08386 133.0815,-10.14823 l 23.1625,-11.43379 -4.4677,9.08261 c -21.3334,43.36948 -55.1747,63.87468 -86.7853,58.83697 z M 767.54982,723.28205 c -18.60148,-60.20866 -26.08195,-120.79062 -24.74198,-200.37736 0.75044,-44.57993 1.32393,-54.36552 3.30274,-56.34472 0.59122,-0.59128 1.66042,4.97644 2.37672,12.37271 0.71598,7.39623 2.07209,18.32177 3.01358,24.27891 0.94217,5.95716 2.81795,20.93977 4.16881,33.29463 2.73192,24.98468 3.65662,24.45364 8.25067,-4.73961 4.32985,-27.51442 11.71688,-52.11556 21.87914,-72.86448 9.63347,-19.66932 21.8037,-36.29777 22.75466,-29.53962 4.00321,28.45088 7.8455,37.61019 16.26109,69.25755 l 2.7605,10.37978 -6.6751,9.33067 c -32.20915,76.98393 -27.34641,55.74044 -39.63739,105.43721 -4.62757,23.90961 -6.52258,47.95863 -6.52258,82.7752 0,20.30854 -0.21667,36.9246 -0.47699,36.9246 -0.26263,0 -3.28336,-9.08348 -6.71341,-20.18547 z m -124.14433,-1.91981 c -0.24621,-11.07476 -0.61946,-20.28836 -0.8266,-20.47466 -0.20681,-0.18726 -7.02245,1.40761 -15.14381,3.54122 -27.55251,7.23997 -54.42792,1.07682 -73.72404,-15.03923 -7.8461,-6.55304 -23.3232,-30.68573 -23.29317,-34.03086 0.006,-0.68907 7.42934,-1.15621 15.81516,-3.14902 39.53992,-9.39646 80.00761,-36.88063 108.71834,-73.83737 5.9298,-7.63294 10.99327,-13.66612 11.25214,-13.40722 0.25934,0.26009 -0.8312,11.06211 -2.42301,24.00699 -6.68065,54.34035 -16.6574,142.61252 -16.6574,147.38114 0,2.82978 -0.73501,5.14489 -1.63416,5.14489 -0.8985,0 -1.83606,-9.06114 -2.08359,-20.13588 z M 1138.3404,601.48377 c -39.0326,-4.06125 -70.9615,-14.01802 -113.801,-35.48731 -29.01046,-14.53887 -76.89992,-45.76518 -82.5565,-53.83102 -2.83796,-4.04689 -13.18793,-37.7836 -16.34024,-53.26325 -3.06972,-15.073 -6.43,-60.06394 -4.48624,-60.06394 0.51276,0 3.91133,4.20932 7.55271,9.35421 18.05871,25.51469 57.80396,69.10134 69.85699,80.06316 l 13.28018,12.07774 c 65.0532,56.54146 137.5787,89.9337 171.9356,96.82057 -18.018,-3.85318 -76.6773,-36.86218 -116.6666,-68.53275 -26.5895,-21.05805 -41.9788,-45.42861 -42.3989,-46.03604 -4.9397,-7.14251 -6.4146,-9.06837 -6.4146,-9.06837 -10.8098,-15.98789 -22.90072,-40.32624 -28.29446,-56.95475 -4.8468,-14.9424 -10.08525,-36.76162 -10.12688,-42.18106 -0.0157,-2.08142 7.16593,6.76397 15.9887,19.69306 18.65514,27.3374 32.50104,45.95779 52.51684,70.62595 10.1832,13.34036 11.528,14.19685 19.2655,22.1695 l 6.0881,7.6788 c 18.5811,23.43611 74.7622,73.65104 107.9871,96.51963 l 14.6281,10.06847 -10.3035,1.23802 c -12.6765,1.52309 -27.102,1.25363 -47.7109,-0.89055 z" />
    <path
       id="path5114-8-6"
       style="display:inline;fill:#f9bdaf;fill-opacity:1;stroke-width:1.4768"
       inkscape:label="腮红"
       d="m 900.394,847.27383 2.64658,0.31558 -6.05836,57.76385 -2.61079,-0.51568 z m -9.33298,-7.30786 2.98798,0.5715 -14.91371,70.62144 -3.24306,-0.85413 z m -15.49606,-0.24622 3.61713,0.58953 -15.55241,71.75371 -2.81202,-0.89714 z m -15.40822,0.19767 3.49497,0.4959 -16.23428,70.83462 -3.06809,-0.83369 z m -15.98709,15.23612 3.25913,0.41615 -9.60096,44.15519 -2.60981,-0.7501 z m 361.32955,-122.73904 2.3075,0.73241 -23.7266,67.30658 -2.4318,-0.99007 z m -15.6919,-8.08185 2.5733,0.73033 -28.1655,81.30933 -2.5165,-1.86675 z m -18.8057,7.31285 2.3982,0.91726 -27.0485,68.30941 -2.811,-1.94616 z m -19.4662,0.37141 2.7831,0.78894 -25.0815,62.04725 -2.5122,-1.20405 z m -19.0386,0.89644 2.8455,0.64052 -17.1685,49.93802 -3.1655,-1.21305 z m -17.1484,9.92479 3.4571,0.79657 -15.2632,39.61318 -2.7426,-0.74489 z"
       mask="none"
       transform="matrix(0.05546413,0.00564674,-0.00573155,0.05316646,-20.35153,-2.46796)" />
    <path
       style="display:inline;fill:url(#linearGradient3480);fill-opacity:1;stroke-width:0.107511"
       d="m 174.62101,52.507365 c -0.20395,-0.527984 -0.64263,-1.437743 -0.95484,-2.031516 -0.9975,-1.897141 -2.20437,-3.173413 -2.66787,-3.442749 -0.47265,-0.274664 -0.60881,0.09895 0.0644,-0.943967 0.20499,-0.317603 0.27833,-0.775448 0.38138,-1.677697 l 0.14025,-1.225917 0.22965,0.363848 c 0.59511,0.942891 1.4937,1.904766 2.27556,1.998968 0.57687,0.06954 0.47197,-0.108411 0.25453,0.485269 -0.0739,0.201679 0.11258,1.956203 0.3305,3.878157 0.21791,1.921953 0.3785,3.508215 0.35685,3.525024 -0.0217,0.01677 -0.20619,-0.401417 -0.41014,-0.929396 z"
       id="path15729-1"
       inkscape:label="头饰2"
       transform="translate(-133.375,-22.375002)" />
    <path
       id="path846-4-6"
       style="display:inline;fill:#000000;fill-opacity:1;stroke-width:0.107511"
       d="m 153.43846,56.405006 c 1.22886,-0.983676 2.96105,-1.683015 4.1503,-1.675602 l 0.60678,0.0038 -0.7258,0.08483 c -1.3505,0.15783 -2.67262,0.715668 -3.90454,1.647429 -0.69496,0.525627 -0.79769,0.476646 -0.12676,-0.06042 z m 11.70277,-4.145663 c 0.28891,-0.145502 0.93472,-0.375763 1.43512,-0.511718 0.47935,-0.130234 0.76626,-0.180307 1.1283,-0.206727 0.27342,-0.01995 0.58339,-0.03157 1.0839,0.01029 0.61365,0.05132 1.30609,0.256608 1.83732,0.52266 0.66243,0.331785 1.64554,1.012184 1.5593,1.079175 -0.028,0.0217 -0.27516,-0.127643 -0.54934,-0.331901 -1.68248,-1.253411 -3.72079,-1.476949 -5.90715,-0.647813 -1.12845,0.427936 -1.32298,0.456432 -0.58745,0.08603 z"
       inkscape:label="眉毛"
       transform="translate(-133.375,-22.375002)" />
    <path
       style="display:inline;fill:#c6734b;fill-opacity:1;stroke-width:1.4768"
       d="m 978.5089,834.88374 80.641,-42.21151 c 0,0 28.9943,22.44052 26.9935,51.10051 -2.0104,28.79876 -11.8047,41.06772 -24.6257,48.36709 -12.8209,7.2994 -31.5443,16.14095 -54.7663,1.50123 -25.80177,-16.26574 -27.70473,-45.30749 -28.36141,-51.5933 -0.65659,-6.28582 0.11813,-7.16416 0.11813,-7.16416 z"
       id="path8333-5-3"
       sodipodi:nodetypes="ccsssscc"
       inkscape:label="嘴部2"
       mask="none"
       transform="matrix(0.05546413,0.00564674,-0.00573155,0.05316646,-20.35153,-2.46796)" />
    <path
       style="display:inline;fill:#f7b690;fill-opacity:1;stroke-width:1.4768"
       d="m 1020.581,844.53543 c 20.2253,-19.48475 59.9142,-24.27016 59.9142,-24.27016 0,0 2.5369,-0.71576 4.926,11.94665 2.3894,12.66281 5.0449,41.40236 -15.2688,59.05497 -20.3136,17.65265 -36.2325,13.18074 -42.8672,12.60944 -6.6349,-0.57115 -18.4996,-7.22873 -22.157,-11.00819 -3.6573,-3.77931 -5.73688,-3.5704 -5.62886,-5.20186 0.10832,-1.63163 5.75106,-29.73747 21.08166,-43.13085 z"
       id="path9217-0-2"
       inkscape:label="嘴部1"
       mask="none"
       transform="matrix(0.05546413,0.00564674,-0.00573155,0.05316646,-20.35153,-2.46796)" />
    <path
       style="display:inline;fill:#f2c371;fill-opacity:1;stroke-width:1.4768"
       d="m 735.61692,62.334835 36.64027,35.750382 -9.43761,7.931533 4.79454,16.35484 18.9062,-22.840613 15.1512,-0.27396 14.52458,21.517123 c 0,0 -1.03998,4.31854 -2.5504,5.79 -2.79495,2.7233 -10.83191,4.43935 -10.83191,4.43935 l -8.38713,-6.01984 -13.6486,21.92509 26.76454,65.40165 18.04509,-0.31211 c 0,0 7.11305,6.00164 6.30504,13.36464 -0.80823,7.363 -6.67577,13.32738 -6.67577,13.32738 l -15.36454,-0.81737 10.20629,20.57266 17.67429,0.5063 -9.54807,64.09791 -46.26705,-43.05185 14.92402,-12.57857 -7.53634,-25.06376 -12.81326,13.15518 c 0,0 -6.32948,2.21389 -9.87203,-2.0939 -3.54254,-4.30736 -4.03426,-11.6403 -4.03426,-11.6403 l 17.05933,-15.86223 -20.51846,-71.71818 -21.82694,-2.62691 0.13788,8.73289 c 0,0 -8.43367,5.73928 -12.82864,5.88336 -4.39488,0.14565 -10.78566,-3.799 -10.78566,-3.799 l 5.4933,-28.17496 9.81583,-7.49257 20.5617,0.48516 -2.83238,-14.19349 -11.91474,0.34956 z"
       id="path10006-3-0"
       sodipodi:nodetypes="cccccccscccccscccccccccscccccsccccccc"
       inkscape:label="头饰1"
       mask="none"
       transform="matrix(0.05546413,0.00564674,-0.00573155,0.05316646,-20.35153,-2.46796)" />
  </g>
</svg>
